<?xml version="1.0" standalone="no"?><!DOCTYPE svg PUBLIC "-//W3C//DTD SVG 1.1//EN" "http://www.w3.org/Graphics/SVG/1.1/DTD/svg11.dtd"><svg t="1607576799358" class="icon" viewBox="0 0 1024 1024" version="1.1" xmlns="http://www.w3.org/2000/svg" p-id="3655" xmlns:xlink="http://www.w3.org/1999/xlink" width="200" height="200"><defs><style type="text/css"></style></defs><path d="M257.6 666.2a259 191.6 0 1 0 518 0 259 191.6 0 1 0-518 0Z" fill="#DD2C14" p-id="3656"></path><path d="M342.3 424.1a53.1 47.1 0 1 0 106.2 0 53.1 47.1 0 1 0-106.2 0Z" fill="#DD2C14" p-id="3657"></path><path d="M582.3 424.1a53.1 47.1 0 1 0 106.2 0 53.1 47.1 0 1 0-106.2 0Z" fill="#DD2C14" p-id="3658"></path><path d="M300.4 621.4c-35-19-70.1-38.1-105.1-57.1-4.9-2.7-9.9-5.4-14.8-8-6.2-3.4-13-2.2-18.2 2.3-29.4 25.7-58.8 51.4-88.2 77.2l-12.3 10.8c-6.1 5.3-5.5 15.8 0 21.2 6.1 6.1 15.1 5.4 21.2 0 29.4-25.7 58.8-51.4 88.2-77.2l12.3-10.8c-6.1 0.8-12.1 1.6-18.2 2.3 35 19 70.1 38.1 105.1 57.1 4.9 2.7 9.9 5.4 14.8 8 7.1 3.9 16.3 1.8 20.5-5.4 4.1-6.7 1.9-16.5-5.3-20.4z" fill="#DD2C14" p-id="3659"></path><path d="M375 533.3c-22.2-11.4-43.9-23.5-64-38.3-6.3-4.6-10.9-8.3-17.6-14.2-6.4-5.6-12.5-11.5-18.2-17.9-11.3-12.5-20.8-26.3-27.8-42-0.7-1.6 0.2 0.4 0.2 0.6-0.5-1.2-0.9-2.3-1.4-3.5l-1.8-5.1c-1-3.2-1.9-6.4-2.7-9.6-0.7-2.9-1.3-5.8-1.8-8.8-0.2-1.4-0.4-2.7-0.7-4.1-0.6-4.1 0.4 2.9-0.1-1.1-1-7.8-6.2-15.4-15-15-7.3 0.3-16 6.7-15 15 1.5 12.5 3.7 24.8 8.2 36.7 6.7 17.8 16.5 33.6 28.4 48.4 22.1 27.6 51.3 49.2 81.6 67 10.7 6.3 21.7 12.1 32.7 17.7 7.2 3.7 16.3 1.9 20.5-5.4 3.8-6.6 1.8-16.7-5.5-20.4zM682.4 568.9c24-12.3 46.9-26.1 68-43.1 14-11.3 26.3-24.1 37.1-38.4 10.4-13.8 20.2-28.1 27.8-43.6 6.6-13.4 11-26.8 12.8-41.6 1-7.8-7.6-15.3-15-15-9 0.4-13.9 6.6-15 15 0.6-5.1 0.1-0.9-0.1 0.2-0.2 1.2-0.4 2.3-0.7 3.4-0.5 2.4-1.1 4.8-1.8 7.2-0.7 2.4-1.5 4.8-2.4 7.2-0.2 0.5-1.9 4.7-1.1 2.8 0.7-1.7-1.2 2.7-1.6 3.5-6.8 14.3-15.6 27.7-24.9 40.4-5 6.8-8.9 11.8-15.4 18.6-5.5 5.7-11.3 11.1-17.4 16.2-1.5 1.3-3.1 2.6-4.7 3.8-0.8 0.6-1.6 1.2-2.4 1.9 0.5-0.4 1.9-1.4-0.5 0.4-3.1 2.3-6.2 4.6-9.4 6.8-5.9 4.1-11.9 8-18.1 11.7-9.9 6-20.1 11.5-30.4 16.7-7.2 3.7-9.3 13.8-5.4 20.5 4.3 7.3 13.3 9.1 20.6 5.4z" fill="#E02924" p-id="3660"></path><path d="M305.2 699c-35.9-10.6-71.8-21.2-107.7-31.9-6.3-1.9-12.7-3.9-19-5.6-6.6-1.8-11.7 0.2-17 3.6L110.2 699c-15.1 10-30.2 19.9-45.3 29.9-6.8 4.5-9.6 13.3-5.4 20.5 3.9 6.7 13.7 9.9 20.5 5.4 29.3-19.4 58.6-38.7 88-58.1 4.2-2.8 8.4-5.5 12.6-8.3-3.9 0.5-7.7 1-11.6 1.5l112.5 33.3c5.3 1.6 10.5 3.1 15.8 4.7 7.5 2.2 16.7-2.7 18.5-10.5 1.7-8-2.5-16.1-10.6-18.4zM337.2 760.2l-135-16.5c-5.1-0.6-9.8-0.2-13.8 4-1 1.1-1.9 2.4-2.9 3.5-5.7 7-11.4 14.1-17.1 21.1-18.8 23.2-37.5 46.3-56.3 69.5-12.9 15.9-25.8 31.8-38.7 47.8-5.1 6.3-6.1 15.1 0 21.2 5.3 5.3 16.1 6.3 21.2 0 12.9-15.9 25.8-31.8 38.7-47.8 20.7-25.5 41.4-51.1 62.1-76.6 4.8-5.9 9.5-11.7 14.3-17.6-3.5 1.5-7.1 2.9-10.6 4.4 40.4 4.9 80.7 9.9 121.1 14.8l17.1 2.1c7.8 1 15.3-7.6 15-15-0.5-8.9-6.7-13.9-15.1-14.9zM995.4 640.8c-29.3-24-58.5-48-87.8-72-4.2-3.4-8.3-6.8-12.5-10.2-3.9-3.2-9.4-5.9-14.6-3.9-43.8 17.4-87.7 34.7-131.5 52.1-6.1 2.4-12.3 4.9-18.4 7.3-7.5 3-12.8 10-10.5 18.5 2 7.2 10.9 13.5 18.5 10.5 43.8-17.4 87.7-34.7 131.5-52.1 6.1-2.4 12.3-4.9 18.4-7.3-4.9-1.3-9.7-2.6-14.6-3.9 29.3 24 58.5 48 87.8 72 4.2 3.4 8.3 6.8 12.5 10.2 6.3 5.1 15.1 6.1 21.2 0 5.3-5.3 6.3-16.1 0-21.2z" fill="#DD2C14" p-id="3661"></path><path d="M962.5 723.9l-84-60.9c-6.2-4.5-10.2-8.3-18.9-6.8-4.3 0.7-8.7 1.7-13 2.5-20.7 4-41.3 8-62 12-15.6 3-31.3 6-46.9 9-8 1.5-12.5 11.1-10.5 18.5 2.3 8.3 10.5 12 18.5 10.5 35.7-6.9 71.3-13.8 107-20.6 5-1 10-1.9 15-2.9-3.9-0.5-7.7-1-11.6-1.5 26.6 19.3 53.3 38.7 79.9 58 3.8 2.7 7.6 5.5 11.4 8.2 6.6 4.8 16.7 1.1 20.5-5.4 4.4-7.7 1.2-15.8-5.4-20.6zM951.5 885.9c-22.2-39.7-44.4-79.5-66.6-119.2-3.1-5.6-6.3-11.2-9.4-16.9-2.5-4.5-7.8-7.6-13-7.4-46.2 1.2-92.5 2.5-138.7 3.7-6.4 0.2-12.9 0.3-19.3 0.5-7.8 0.2-15.4 6.7-15 15 0.4 7.9 6.6 15.2 15 15 46.2-1.2 92.5-2.5 138.7-3.7 6.4-0.2 12.9-0.3 19.3-0.5-4.3-2.5-8.6-5-13-7.4 22.2 39.7 44.4 79.5 66.6 119.2 3.1 5.6 6.3 11.2 9.4 16.9 4 7.1 13.6 9.4 20.5 5.4 7.2-4.3 9.4-13.5 5.5-20.6zM153.7 203.4l7.5 100.7-93.6-36.5S38.6 419 181.7 405.9c86.9-7.9 99.6-135.4 57.4-170.5-35.9-29.8-85.4-32-85.4-32zM946.5 246.9l-77.9 48.6-20.1-92.7S702.1 251 783 369.8c49.2 72.1 166.7 21.3 176.9-32.6 8.7-45.9-13.4-90.3-13.4-90.3z" fill="#DD2C14" p-id="3662"></path><path d="M562.9 784.4c-5.6 1.6-11.3 3-17.1 4.2-2.3 0.5-4.7 0.8-7.1 1.2 3.7-0.6-0.4 0-1 0.1-1.2 0.1-2.5 0.2-3.7 0.3-11.4 0.9-22.8 0.7-34.2 0.7-7.8 0-15.4 6.9-15 15 0.4 8.1 6.6 15 15 15 11.8 0 23.7 0.3 35.4-0.8 12.1-1.1 23.9-3.5 35.5-6.8 7.8-2.2 12.6-10.6 10.5-18.5-2-7.7-10.5-12.6-18.3-10.4z" fill="#312814" p-id="3663"></path><path d="M433.8 787.9c-6.1-2-12.1-4.4-18-6.9-0.7-0.3-1.4-0.6-2.2-0.9 3.5 1.4-0.3-0.1-0.9-0.4-1.5-0.7-3.1-1.3-4.6-2-4.2-1.8-8.4-3.7-12.5-5.6-14.6-6.7-29.2-13.7-43.2-21.7-2.2-1.3-4.4-2.6-6.6-4-1.5-1-3-2-4.4-3.1-0.9-0.6-1.8-1.3-2.6-1.9-0.9-0.6-1.7-1.3-2.6-1.9 0.7 0.5 0.6 0.5-0.2-0.1-8.1-6.3-15.6-13.2-22.6-20.7-7.5-8.1-11.4-12.9-17.1-22-2.4-3.7-4.6-7.5-6.7-11.5-1.1-2.2-2.2-4.3-3.2-6.5-0.4-0.9-0.8-1.8-1.2-2.6-1.4-3.1 0.4 1.2-0.7-1.8-3.3-9.1-6.1-18.2-7.7-27.8-0.2-1-0.3-1.9-0.4-2.9 0.5 3.2-0.1-1.5-0.2-1.8-0.2-2.2-0.4-4.4-0.5-6.5-0.2-4.6-0.2-9.1 0-13.7 0.1-1.6 0.2-3.1 0.3-4.7 0.1-1 0.9-7 0.3-3 0.6-3.8 1.3-7.7 2.1-11.4 0.9-3.8 1.9-7.5 3.1-11.2 0.5-1.7 1.1-3.3 1.7-5 0.3-0.9 0.7-1.8 1-2.7 0.3-0.8 1.7-4.1 0.3-0.7 3-7.1 6.6-13.9 10.6-20.4 2-3.2 4.1-6.4 6.3-9.5 0.6-0.8 4.2-5.5 2-2.8 1.3-1.6 2.6-3.2 3.9-4.7 5.4-6.4 11.2-12.3 17.4-17.9 2.8-2.6 5.8-5.1 8.7-7.5 0.8-0.7 1.7-1.4 2.5-2 2-1.6-2.8 2.1 0.6-0.4 1.9-1.4 3.9-2.9 5.8-4.2 7.1-5 14.6-9.6 22.2-13.8 3.8-2.1 7.7-4.1 11.6-6l5.7-2.7c1.1-0.5 2.1-1 3.2-1.4 0.6-0.3 1.3-0.6 1.9-0.8-1.4 0.6-1.3 0.5 0.3-0.1 17.6-7.2 35.9-12.7 54.6-16.4 4.7-0.9 9.5-1.8 14.2-2.5 3.9-0.6 7.1-1 12.9-1.5 10.2-1 20.5-1.5 30.8-1.5 21.4 0 39.3 1.7 58.7 5.6 18.8 3.8 37.4 9.3 55.1 16.8-2.5-1.1 2.8 1.3 3.5 1.6 1.9 0.9 3.8 1.7 5.7 2.7 4.3 2.1 8.6 4.3 12.8 6.6 7.6 4.2 15 8.8 22.1 13.9 1.8 1.3 3.5 2.6 5.3 3.9 0.4 0.3 2.2 1.7 0.1 0 0.8 0.7 1.7 1.3 2.5 2 3.5 2.8 6.9 5.7 10.2 8.8 5.8 5.4 11.3 11 16.4 17.1 1.3 1.6 2.6 3.2 3.9 4.7-2.2-2.6 1.5 2 2 2.8 2.3 3.2 4.6 6.6 6.7 10 1.9 3 3.6 6.1 5.3 9.3 0.9 1.7 1.8 3.5 2.6 5.3l1.2 2.7c0.2 0.4 1.7 4 0.9 2-0.6-1.5 1 2.7 1.4 3.6 0.7 1.8 1.3 3.7 1.9 5.5 1.2 3.7 2.2 7.4 3.1 11.2 0.9 3.8 1.6 7.6 2.1 11.4-0.5-3.4 0 0.5 0.2 1.8 0.2 2.3 0.4 4.7 0.5 7 0.2 3.7 0.2 7.5 0 11.2-0.1 2.2-0.2 4.4-0.4 6.6-0.1 0.9-0.2 1.8-0.3 2.6-0.1 0.9-0.2 1.8-0.3 2.6 0.2-1.6 0.2-1.8 0.1-0.7-1.9 8.5-3.4 17-6.3 25.3-0.7 2.1-1.5 4.3-2.3 6.4-0.3 0.8-0.7 1.7-1 2.5 1.1-2.6-0.1 0.2-0.4 0.8-2 4.4-4.2 8.7-6.6 12.9-2.1 3.7-4.3 7.2-6.6 10.7-1.3 2-2.7 3.9-4.1 5.8-0.6 0.8-1.1 1.5-1.7 2.3 1.6-2.2-0.9 1.1-1.2 1.5-6.2 7.6-12.9 14.8-20.2 21.4-8 7.3-13.2 11.3-22.5 17.4-8.5 5.6-17.5 10.5-26.7 14.9-7.3 3.5-9.2 13.9-5.4 20.5 4.4 7.5 13.2 8.9 20.5 5.4 38.8-18.6 73.4-48.1 94.4-86 18.8-33.9 25.7-73.4 17.3-111.3-16.5-74-85.7-123.7-154.5-144.9-80.5-24.8-173.7-17.7-247.7 23.5-32 17.9-60.9 43-80 74.6-19 31.4-26.3 67.9-20.7 104.1 6.6 42.6 33.2 80.6 66.5 107 27.7 22 61.1 36.4 93.6 49.8 5.9 2.5 11.9 4.9 18 6.9 7.5 2.5 16.7-2.8 18.5-10.5 2.2-8.3-2.2-15.8-10.1-18.5zM417.1 388c0 1.3-0.2 2.6-0.2 3.9 0-2.8 0.2-1 0-0.2-0.5 2.1-1.1 4.1-1.6 6.1-1.1 3.8 1.4-2.4-0.4 1.1-0.4 0.7-0.8 1.5-1.2 2.2-0.6 1.1-1.4 2.1-2 3.2-1.5 2.6 1.5-1.5-0.7 1-1.4 1.6-2.9 3.2-4.5 4.6-0.6 0.6-1.3 1.1-2 1.7 2.5-2.1-0.8 0.5-1.2 0.8-1.9 1.2-3.8 2.4-5.8 3.3-0.8 0.4-1.6 0.8-2.5 1.1 2.8-1.2-1.6 0.5-2.2 0.7-2.2 0.7-4.5 1.3-6.8 1.7-0.7 0.1-3.8 0.4-1 0.2-1.2 0.1-2.4 0.2-3.6 0.2-2.5 0.1-4.9 0-7.3-0.2-2.7-0.2 3.4 0.7-1-0.1-1.4-0.3-2.8-0.5-4.1-0.9-2.3-0.6-4.4-1.3-6.6-2.1 3 1.1-1-0.5-1.4-0.7-0.8-0.4-1.6-0.8-2.4-1.3-1.9-1.1-3.8-2.3-5.6-3.6 2.3 1.7 0 0-0.5-0.5-1.1-1-2.2-2-3.2-3.1-0.6-0.6-1.1-1.3-1.7-1.9-2.7-3 1.3 2.4-0.7-1-1.1-1.8-2.1-3.6-3.2-5.5-0.3-0.6-1-2.6 0 0.1l-1.2-3.6c-0.2-0.8-0.4-1.6-0.6-2.5-0.2-0.8-0.3-1.7-0.5-2.5 0.2 1.6 0.3 1.9 0.2 0.8 0.3-1.8 0-4-0.1-5.9 0-4-0.8 2.8 0.1-1.1 0.2-0.8 0.3-1.7 0.5-2.5 0.2-1 2.3-6.6 1-3.6 1.1-2.3 2.4-4.4 3.7-6.6 2-3.4-1.2 1.3 0.3-0.5l2.1-2.4c1.5-1.6 3.1-3 4.7-4.4-2.2 1.8 0 0 0.6-0.4 0.9-0.6 1.8-1.2 2.8-1.8 0.8-0.5 1.5-0.9 2.3-1.3 0.5-0.3 5.5-2.4 2.6-1.3 2.2-0.8 4.4-1.5 6.6-2.1 0.9-0.2 1.8-0.4 2.8-0.6-0.2 0 4.4-0.6 2.2-0.4-2.2 0.2 2.6-0.1 2.3-0.1 1.2-0.1 2.5-0.1 3.7-0.1 1.2 0 2.4 0.1 3.7 0.2 3.5 0.1-1.4-0.4 1.7 0.2 2.8 0.5 5.5 1.2 8.2 2-0.2-0.1 4.1 1.5 2.1 0.7-1.4-0.5 2.7 1.3 3.1 1.5 2.3 1.2 4.6 2.7 6.7 4.2-2.3-1.7 2.1 2 2.9 2.8 0.9 0.9 1.7 1.9 2.6 2.8 2.5 2.8-1.2-2.2 0.7 1 1.3 2.2 2.6 4.3 3.7 6.6-1.3-2.8-0.1-0.2 0.1 0.5 0.4 1.4 0.9 2.8 1.2 4.3 0.2 0.8 0.3 1.7 0.5 2.5-0.4-3.4 0.1 2.1 0.1 2.8 0.1 7.8 6.8 15.4 15 15 8-0.4 15.1-6.6 15-15-0.4-27.5-19.5-49.6-44.9-58.2-25.3-8.6-56.3-1.8-74.5 18.1-17.8 19.5-21.8 49.3-6.7 71.7 15.9 23.6 44.2 33.4 71.7 29 29.7-4.7 53.9-30.2 54.4-60.6 0.1-7.8-7-15.4-15-15-8.2 0.4-14.8 6.6-15 15zM655.9 388c0 1.3-0.2 2.6-0.2 3.9 0-2.8 0.2-1 0-0.2-0.5 2.1-1.1 4.1-1.6 6.1-1.1 3.8 1.4-2.4-0.4 1.1-0.4 0.7-0.8 1.5-1.2 2.2-0.6 1.1-1.4 2.1-2 3.2-1.5 2.6 1.5-1.5-0.7 1-1.4 1.6-2.9 3.2-4.5 4.6-0.6 0.6-1.3 1.1-2 1.7 2.5-2.1-0.8 0.5-1.2 0.8-1.9 1.2-3.8 2.4-5.8 3.3-0.8 0.4-1.6 0.8-2.5 1.1 2.8-1.2-1.6 0.5-2.2 0.7-2.2 0.7-4.5 1.3-6.8 1.7-0.7 0.1-3.8 0.4-1 0.2-1.2 0.1-2.4 0.2-3.6 0.2-2.5 0.1-4.9 0-7.3-0.2-2.7-0.2 3.4 0.7-1-0.1-1.4-0.3-2.8-0.5-4.1-0.9-2.3-0.6-4.4-1.3-6.6-2.1 3 1.1-1-0.5-1.4-0.7-0.8-0.4-1.6-0.8-2.4-1.3-1.9-1.1-3.8-2.3-5.6-3.6 2.3 1.7 0 0-0.5-0.5-1.1-1-2.2-2-3.2-3.1-0.6-0.6-1.1-1.3-1.7-1.9-2.7-3 1.3 2.4-0.7-1-1.1-1.8-2.1-3.6-3.2-5.5-0.3-0.6-1-2.6 0 0.1l-1.2-3.6c-0.2-0.8-0.4-1.6-0.6-2.5-0.2-0.8-0.3-1.7-0.5-2.5 0.2 1.6 0.3 1.9 0.2 0.8 0.3-1.8 0-4-0.1-5.9 0-4-0.8 2.8 0.1-1.1 0.2-0.8 0.3-1.7 0.5-2.5 0.2-1 2.3-6.6 1-3.6 1.1-2.3 2.4-4.4 3.7-6.6 2-3.4-1.2 1.3 0.3-0.5l2.1-2.4c1.5-1.6 3.1-3 4.7-4.4-2.2 1.8 0 0 0.6-0.4 0.9-0.6 1.8-1.2 2.8-1.8 0.8-0.5 1.5-0.9 2.3-1.3 0.5-0.3 5.5-2.4 2.6-1.3 2.2-0.8 4.4-1.5 6.6-2.1 0.9-0.2 1.8-0.4 2.8-0.6-0.2 0 4.4-0.6 2.2-0.4-2.2 0.2 2.6-0.1 2.3-0.1 1.2-0.1 2.5-0.1 3.7-0.1 1.2 0 2.4 0.1 3.7 0.2 3.5 0.1-1.4-0.4 1.7 0.2 2.8 0.5 5.5 1.2 8.2 2-0.2-0.1 4.1 1.5 2.1 0.7-1.4-0.5 2.7 1.3 3.1 1.5 2.3 1.2 4.6 2.7 6.7 4.2-2.3-1.7 2.1 2 2.9 2.8 0.9 0.9 1.7 1.9 2.6 2.8 2.5 2.8-1.2-2.2 0.7 1 1.3 2.2 2.6 4.3 3.7 6.6-1.3-2.8-0.1-0.2 0.1 0.5 0.4 1.4 0.9 2.8 1.2 4.3 0.2 0.8 0.3 1.7 0.5 2.5-0.5-3.4 0 2.1 0.1 2.8 0.1 7.8 6.8 15.4 15 15 8-0.4 15.1-6.6 15-15-0.4-27.5-19.5-49.6-44.9-58.2-25.3-8.6-56.3-1.8-74.5 18.1-17.8 19.5-21.8 49.3-6.7 71.7 15.9 23.6 44.2 33.4 71.7 29 29.7-4.7 53.9-30.2 54.4-60.6 0.1-7.8-7-15.4-15-15-8.3 0.4-14.9 6.6-15 15z" fill="#312814" p-id="3664"></path><path d="M604.7 388a13.3 11.8 0 1 0 26.6 0 13.3 11.8 0 1 0-26.6 0Z" fill="#312814" p-id="3665"></path><path d="M366 388a13.3 11.8 0 1 0 26.6 0 13.3 11.8 0 1 0-26.6 0Z" fill="#312814" p-id="3666"></path><path d="M265.6 583.8c-29.2-18.8-58.4-37.6-87.5-56.4-4.2-2.7-8.3-5.3-12.5-8-5.9-3.8-13.3-1.9-18.2 2.3-29.2 25.6-58.4 51.1-87.6 76.7-4.1 3.6-8.3 7.2-12.4 10.8-6.1 5.3-5.5 15.8 0 21.2 6.1 6.1 15.1 5.4 21.2 0 29.2-25.6 58.4-51.1 87.6-76.7 4.1-3.6 8.3-7.2 12.4-10.8-6.1 0.8-12.1 1.6-18.2 2.3 29.2 18.8 58.4 37.6 87.5 56.4 4.2 2.7 8.3 5.3 12.5 8 6.8 4.4 16.6 1.4 20.5-5.4 4.3-7.1 1.5-16-5.3-20.4zM342.3 487.9c-8.2-4.2-16.3-8.4-24.2-13.1-5.4-3.2-10.7-6.7-15.9-10.3-6.5-4.5-9.5-6.9-15.1-11.5-13.4-11.2-26.1-23.7-36.7-37.6-3.7-4.8-8.2-11.5-11.6-17.5-1.7-2.9-3.2-5.9-4.7-8.9-0.7-1.4-1.3-2.8-2-4.3-0.7-1.6 0.2 0.4 0.2 0.6-0.4-1-0.8-1.9-1.2-2.9-2.1-5.6-3.9-11.4-5.2-17.2-0.6-2.5-1.1-5.1-1.5-7.6l-0.6-3.6c-0.5-3.4 0.4 3.4-0.1-0.7-1-7.8-6.2-15.4-15-15-7.3 0.3-16 6.7-15 15 3.3 26.4 11.7 50.6 27.1 72.5 20.1 28.5 46.6 52.7 76.1 71.3 9.7 6.1 19.8 11.5 30 16.7 7.2 3.7 16.3 1.9 20.5-5.4 4.2-6.6 2.1-16.7-5.1-20.5zM678.4 517.7c8.6-4.3 17.5-7.9 26.1-12.2 12.9-6.5 25-14.4 36.1-23.6 13.9-11.4 25-25.4 35.4-40 8.6-12.1 16.7-24.6 22.8-38.1 5.6-12.2 9.3-24.3 11-37.6 1-7.8-7.6-15.3-15-15-9 0.4-13.9 6.6-15 15 0.3-2.5 0.4-2.4 0-0.3-0.2 1-0.3 2-0.6 3-0.5 2.2-1 4.4-1.6 6.6-0.6 2.2-1.3 4.4-2.1 6.6-0.4 1.2-0.8 2.3-1.3 3.4l-0.6 1.5c-0.6 1.7 1.2-2.6 0 0-5.6 12.2-12.4 23.6-20 34.7-9.3 13.5-18.7 25.5-31.3 36.5-1.3 1.2-2.7 2.3-4.1 3.4 0 0-1.9 1.5-0.8 0.7 1.2-1-1.1 0.9-1.4 1-2.8 2.1-5.7 4.1-8.6 6-5 3.2-10.2 6.2-15.4 8.9-9.4 4.9-19.3 8.8-28.7 13.5-7.2 3.7-9.3 13.8-5.4 20.5 4.3 7.4 13.3 9.1 20.5 5.5z" fill="#312814" p-id="3667"></path><path d="M264.5 659.1c-31.5-10.9-63-21.8-94.4-32.7-6.8-2.3-12.4-5.1-19.7-1.2-3.7 2-7.1 4.7-10.6 7-17 11.2-33.9 22.4-50.9 33.6-12.8 8.5-25.6 16.9-38.4 25.4-6.8 4.5-9.6 13.3-5.4 20.5 3.9 6.7 13.7 9.9 20.5 5.4 29.1-19.2 58.2-38.5 87.4-57.7 4.2-2.8 8.4-5.6 12.6-8.3-3.9 0.5-7.7 1-11.6 1.5 29.9 10.4 59.8 20.7 89.7 31.1 4.3 1.5 8.5 3 12.8 4.4 7.4 2.6 16.7-2.9 18.5-10.5 1.9-8.4-2.6-15.7-10.5-18.5zM313.9 724c-41.8-6-83.5-12.1-125.3-18-10.9-1.5-14.4 2.8-20 9.6-6.2 7.6-12.3 15.2-18.5 22.8-18.2 22.5-36.4 45-54.6 67.4C83.3 820.9 71.1 836 59 851c-5.1 6.3-6.1 15.1 0 21.2 5.3 5.3 16.1 6.3 21.2 0l38.7-47.7c20.5-25.3 41.1-50.7 61.6-76 4.7-5.8 9.4-11.6 14.2-17.5-4.9 1.3-9.7 2.6-14.6 3.9 36.8 5.3 73.6 10.6 110.3 15.9 5.2 0.7 10.4 1.5 15.6 2.2 7.7 1.1 16.5-1.9 18.5-10.5 1.5-7.1-2.3-17.3-10.6-18.5zM976.3 603.5c-29.1-23.8-58.2-47.7-87.2-71.5-4.2-3.4-8.4-6.8-12.5-10.3-3.8-3.1-9.5-6-14.6-3.9-36.5 15.2-73.1 30.4-109.6 45.5-5.2 2.2-10.4 4.3-15.6 6.5-7.5 3.1-12.8 9.9-10.5 18.5 1.9 7.1 10.9 13.6 18.5 10.5 36.5-15.2 73.1-30.4 109.6-45.5 5.2-2.2 10.4-4.3 15.6-6.5-4.9-1.3-9.7-2.6-14.6-3.9 29.1 23.8 58.2 47.7 87.2 71.5 4.2 3.4 8.4 6.8 12.5 10.3 6.3 5.1 15.1 6.1 21.2 0 5.3-5.3 6.3-16 0-21.2zM943.5 686.2c-26.4-19.2-52.9-38.4-79.3-57.6-3.7-2.7-7.3-5.9-11.2-8.2-6.3-3.7-12.1-1.6-18.3 0.1-18.2 4.9-36.4 9.8-54.6 14.8-14.9 4-29.9 8.1-44.8 12.1-7.8 2.1-12.6 10.7-10.5 18.5 2.2 7.9 10.6 12.6 18.5 10.5 30.9-8.4 61.8-16.7 92.7-25.1 4.4-1.2 8.8-2.4 13.3-3.6-3.9-0.5-7.7-1-11.6-1.5 26.5 19.3 53.1 38.5 79.6 57.8l11.1 8.1c6.6 4.8 16.7 1.1 20.5-5.4 4.4-7.6 1.2-15.7-5.4-20.5zM932.6 847.4c-22.1-39.6-44.3-79.2-66.4-118.7-3.1-5.5-6.2-11.1-9.3-16.6-2.4-4.3-7.9-7.8-13-7.4-41.5 2.8-83 5.7-124.6 8.5-5.9 0.4-11.7 0.8-17.6 1.2-7.8 0.5-15.4 6.5-15 15 0.3 7.7 6.6 15.6 15 15 41.5-2.8 83-5.7 124.6-8.5 5.9-0.4 11.7-0.8 17.6-1.2-4.3-2.5-8.6-5-13-7.4 22.1 39.6 44.3 79.2 66.4 118.7 3.1 5.5 6.2 11.1 9.3 16.6 4 7.1 13.6 9.4 20.5 5.4 7.2-4.3 9.4-13.6 5.5-20.6zM123.9 168.5c2.2 29.2 4.3 58.4 6.5 87.6l0.9 12.6c6.3-4.8 12.7-9.6 19-14.5l-81.6-31.8c-3.8-1.5-7.7-3-11.5-4.5-7.1-2.8-17 3.1-18.5 10.5-3.5 18.6-3.9 38.2-1.5 56.9 4.6 35.9 20.9 71.1 54.8 88 22.2 11 47.5 13.8 72 11.9 24.9-1.9 48-11.5 65.1-30.1C259 322.7 269 272 257.7 229.9c-2.5-9.2-6.2-18.4-11.4-26.3-7.1-10.7-16.7-18.5-27.6-25.2-22.6-14.1-49.1-21.7-75.4-24.5-1.4-0.1-2.9-0.3-4.3-0.4-7.9-0.4-15.5 7.1-15.1 15 0.4 8.4 6.6 14.6 15 15 1.4 0.1 2.7 0.2 4.1 0.3 1.5 0.1 2.9 0.4 4.4 0.5-5-0.3-1.7-0.2-0.5 0 1.3 0.2 2.7 0.4 4 0.7 11.8 2.1 23.3 5.4 34.4 9.7 2.3 0.9-1.9-0.8 0.4 0.1 0.7 0.3 1.3 0.6 2 0.9 1.8 0.8 3.6 1.7 5.3 2.5 3.4 1.7 6.7 3.5 9.9 5.5 3.1 1.9 6.1 3.9 9 6.1 2.1 1.6-1.3-1.1 0.7 0.6 0.4 0.3 0.8 0.6 1.2 1 0.8 0.7 1.6 1.4 2.4 2.2 1.2 1.2 2.2 2.6 3.4 3.8 0.2 0.2-2-2.9-0.3-0.4 0.6 0.8 1.2 1.7 1.7 2.5 1.1 1.6 2 3.3 2.9 5.1 0.4 0.8 0.8 1.7 1.2 2.5 0.2 0.5 0.4 1 0.7 1.5 0.9 1.9-0.6-1-0.5-1.3-0.2 1.2 1.6 4.3 2 5.5 0.7 2.2 1.4 4.4 1.9 6.6 0.5 2 0.9 4 1.3 6.1l0.6 3.6c0.1 0.5 0.1 0.9 0.2 1.4 0.3 1.9-0.4-4-0.1-0.8 0.8 9.4 1.1 18.7 0.1 28.1-0.1 1.1-0.1 2.3-0.4 3.4 1-4.5 0-0.2-0.2 0.9-0.4 2.4-0.9 4.9-1.4 7.3-1.1 4.8-2.4 9.6-4 14.3-0.7 2.2-1.7 4.3-2.4 6.5-0.7 1.9 1.3-2.7 0.4-0.9-0.2 0.4-0.4 0.9-0.6 1.3-0.6 1.2-1.1 2.4-1.7 3.5-2.2 4.4-4.6 8.6-7.4 12.6-0.7 1.1-1.5 2.1-2.3 3.1 1.3-1.9 1.2-1.4 0 0-1.6 2-3.3 3.9-5.1 5.8-1.6 1.6-3.2 3.2-4.9 4.6-1 0.8-2 1.6-3 2.5 2.5-2.1 0.5-0.4-0.9 0.5-4.1 2.8-8.4 5-12.9 7.2 2.5-1.3 1.1-0.5-0.6 0.2-1.1 0.4-2.3 0.8-3.4 1.2-2.5 0.8-5 1.5-7.6 2-1.2 0.3-2.5 0.5-3.7 0.7-0.7 0.1-1.4 0.2-2.2 0.3 0.5-0.1 3.5-0.3 0.7-0.1-3.3 0.3-6.5 0.6-9.8 0.7-6.1 0.3-12.3 0.3-18.4-0.1-1.3-0.1-2.7-0.2-4-0.3-0.7-0.1-4.6-0.5-2.4-0.2 2.3 0.3-1.7-0.3-2.3-0.4-1.4-0.2-2.7-0.5-4.1-0.8-4.8-1-9.5-2.3-14.1-4-0.8-0.3-2.9-0.7-3.4-1.3-0.1-0.1 3 1.4 1.5 0.6-0.5-0.3-1.1-0.5-1.6-0.7-2-0.9-3.9-1.9-5.8-3-1.7-1-3.4-2-5-3.1-0.9-0.6-1.8-1.2-2.7-1.9-3-2.1 1.5 1.4-0.2-0.1-2.9-2.6-5.9-5.2-8.5-8.1-0.3-0.4-3.3-4.2-3.5-4.1 0.1 0 2.3 3.2 1 1.2-0.2-0.3-0.5-0.6-0.7-0.9-0.6-0.8-1.2-1.6-1.7-2.5-2.1-3.1-3.9-6.3-5.6-9.7-0.8-1.5-1.4-3.2-2.2-4.7-0.3-0.6 1.3 3.4 0.2 0.5-0.4-1-0.8-2-1.2-3.1-2.4-6.6-4.2-13.5-5.5-20.5-0.3-1.7-0.6-3.4-0.8-5.2-0.5-3 0.4 3.4 0.1 0.9l-0.3-2.7c-0.4-3.3-0.6-6.5-0.8-9.8-0.3-5.8-0.3-11.7-0.1-17.5 0.2-4.4 0.5-8.8 1-13.2l0.3-2.4c0.4-3.4-0.7 4.6-0.2 1.5 0.1-0.9 0.3-1.9 0.4-2.8 0-0.3 0.1-0.7 0.2-1-6.2 3.5-12.3 7-18.5 10.5l81.6 31.8c3.8 1.5 7.7 3 11.5 4.5 8.8 3.4 19.7-5.4 19-14.5-2.2-29.2-4.3-58.4-6.5-87.6l-0.9-12.6c-0.6-7.8-6.5-15.4-15-15-7.4 0.7-15.4 7-14.8 15.4zM920 198.8l-67.8 42.3c-3.2 2-6.5 4-9.7 6 7.3 3 14.7 6 22 9-5.8-26.9-11.7-53.8-17.5-80.6-0.8-3.9-1.7-7.7-2.5-11.6-1.7-7.6-11.1-12.9-18.5-10.5-17.6 5.8-34.9 15-49.8 26-28.8 21.2-51.3 51.6-50.6 88.9 0.4 24.2 9.8 47.4 22.6 67.6 13.6 21.5 32.5 37.8 57.3 44.7 42.8 11.9 92.4-4 124.4-33.6 7.1-6.6 13.6-14.3 18.3-22.8 6.1-11 8.3-22.6 9.3-35.1 2.1-27.5-4.3-55.5-15.1-80.6-0.6-1.4-1.2-2.8-1.9-4.2-3.6-7.4-13.9-9.4-20.5-5.5-7.4 4.3-9 13.2-5.4 20.5l1.8 3.9c0.3 0.6-1.5-3.7-0.4-1 0.3 0.8 0.6 1.5 0.9 2.3 0.8 2.2 1.6 4.3 2.4 6.5 1.9 5.4 3.5 10.9 4.8 16.5 0.7 3.1 1.4 6.3 2 9.5 0.3 1.5 0.5 3.1 0.8 4.6 0.3 1.7 0.1 0.3 0 0 0.1 1.1 0.3 2.2 0.4 3.3 1.3 13 1.7 26.4-2.1 38.1-0.3 0.8-0.6 1.5-0.8 2.3-0.8 2.5 1.4-2.9 0.2-0.5-0.9 1.8-1.7 3.6-2.8 5.3-1 1.7-2 3.3-3.1 4.8-0.3 0.5-2.1 3-0.7 1 1.4-1.9-0.9 1.1-1.4 1.7-2.7 3.2-5.7 6.2-8.8 9-1.6 1.5-3.3 2.8-5 4.2-2.2 1.8 2.1-1.5-0.2 0.1-1.1 0.8-2.2 1.6-3.4 2.4-3.8 2.6-7.7 5-11.8 7.2-2.1 1.1-4.2 2.2-6.3 3.2-1.2 0.5-2.3 1.1-3.5 1.6-2.3 1.1 2.3-0.9-1 0.4-9.2 3.6-18.5 6.1-28.2 7.8-2.8 0.5 3-0.3-0.9 0.1l-3.3 0.3c-2.6 0.2-5.1 0.3-7.7 0.4-2.4 0-4.7 0-7.1-0.1-1.1-0.1-2.2-0.1-3.3-0.2-0.7-0.1-4.5-0.5-2.3-0.2 2.3 0.3-1.7-0.3-2.3-0.4-1.1-0.2-2.1-0.4-3.2-0.6-2.5-0.5-4.9-1.2-7.3-1.9-1-0.3-2.1-0.7-3.1-1-0.7-0.2-4.1-1.6-2.2-0.8 1.9 0.8-1.2-0.6-1.7-0.8-1.3-0.6-2.6-1.3-3.9-2-1.9-1.1-3.8-2.2-5.7-3.4-1.1-0.7-2.1-1.5-3.2-2.2 2.5 1.7 0 0-0.9-0.8-4-3.4-7.7-7.3-11-11.4 1.6 2.1 0 0-0.6-0.9-1-1.4-1.9-2.8-2.8-4.2-1.7-2.6-3.4-5.3-4.9-8-3-5.2-5.5-10.5-8.1-15.9-0.7-1.6 0.2 0.6 0.3 0.8-0.2-0.6-0.5-1.1-0.7-1.7l-1.5-3.9c-0.9-2.5-1.7-5-2.4-7.6-0.6-2.1-1.1-4.2-1.5-6.3-0.2-1.2-0.4-2.4-0.7-3.6-0.7-3.5 0.1 2-0.1-0.5-0.4-4.3-0.7-8.6-0.5-13 0.1-1.8 0.2-3.7 0.4-5.5 0.3-3.7-0.5 2.6 0 0l0.6-3c0.8-3.8 1.8-7.5 3.2-11.2 0.1-0.3 1.1-2.1 0.9-2.4 0.4 0.7-1.5 3.4 0 0.1 0.8-1.6 1.6-3.3 2.4-4.8 1.8-3.3 3.7-6.4 5.9-9.4 0.5-0.7 1-1.3 1.4-2 2.1-2.8-1.7 2.1-0.1 0.1 1.2-1.4 2.4-2.9 3.7-4.3 4.7-5.2 9.8-9.9 15.2-14.3 0.9-0.7 2.4-1.1 0.6-0.5-1.9 0.6 0 0 0.9-0.7 1.3-1 2.6-1.9 3.9-2.8 2.7-1.9 5.4-3.6 8.1-5.3 4.8-3 9.8-5.7 14.8-8.3 2.2-1.1 4.3-2.1 6.5-3.1 0.9-0.4 1.7-0.8 2.6-1.2 3.7-1.7-2.5 1-0.5 0.2 2.3-0.9 4.6-1.7 6.8-2.6l0.9-0.3c-6.2-3.5-12.3-7-18.5-10.5 5.8 26.9 11.7 53.8 17.5 80.6 0.8 3.9 1.7 7.7 2.5 11.6 2 9.3 14.1 13.9 22 9l67.8-42.3c3.2-2 6.5-4 9.7-6 6.9-4.3 9.6-13.4 5.4-20.5-3.9-7-13.5-9.8-20.4-5.5z" fill="#312814" p-id="3668"></path><path d="M221.6 945.4m-22.7 0a22.7 22.7 0 1 0 45.4 0 22.7 22.7 0 1 0-45.4 0Z" fill="#DD2C14" p-id="3669"></path><path d="M919.6 78.1m-11.8 0a11.8 11.8 0 1 0 23.6 0 11.8 11.8 0 1 0-23.6 0Z" fill="#DD2C14" p-id="3670"></path><path d="M499.9 968.1m-11.8 0a11.8 11.8 0 1 0 23.6 0 11.8 11.8 0 1 0-23.6 0Z" fill="#DD2C14" p-id="3671"></path><path d="M961.9 467.8m-14.8 0a14.8 14.8 0 1 0 29.6 0 14.8 14.8 0 1 0-29.6 0Z" fill="#DD2C14" p-id="3672"></path><path d="M443.5 266.2c-2.1 0-3.8-1.7-3.8-3.8V231c0-2.1 1.7-3.8 3.8-3.8 2.1 0 3.8 1.7 3.8 3.8v31.4c0 2.1-1.7 3.8-3.8 3.8z" fill="#DD2C14" p-id="3673"></path><path d="M463 246.7c0 2.1-1.7 3.8-3.8 3.8h-31.4c-2.1 0-3.8-1.7-3.8-3.8 0-2.1 1.7-3.8 3.8-3.8h31.4c2.1 0 3.8 1.7 3.8 3.8z" fill="#DD2C14" p-id="3674"></path><path d="M188.1 44.1c1.7 0 3.1 1.4 3.1 3.1v12.1c0 1.7-1.4 3.1-3.1 3.1-1.7 0-3.1-1.4-3.1-3.1V47.2c0.1-1.7 1.4-3.1 3.1-3.1zM171.5 48.9c1.5-0.8 3.3-0.3 4.2 1.1l6 10.5c0.8 1.5 0.3 3.3-1.1 4.2-1.5 0.8-3.3 0.3-4.2-1.1l-6-10.5c-0.8-1.5-0.3-3.4 1.1-4.2zM159.5 61.3c0.8-1.5 2.7-2 4.2-1.1l10.5 6c1.5 0.8 2 2.7 1.1 4.2-0.8 1.5-2.7 2-4.2 1.1l-10.5-6c-1.4-0.8-1.9-2.7-1.1-4.2zM155.4 78.1c0-1.7 1.4-3.1 3.1-3.1h12.1c1.7 0 3.1 1.4 3.1 3.1 0 1.7-1.4 3.1-3.1 3.1h-12.1c-1.8 0-3.1-1.4-3.1-3.1zM160.1 94.7c-0.8-1.5-0.3-3.3 1.1-4.2l10.5-6c1.5-0.8 3.3-0.3 4.2 1.1 0.8 1.5 0.3 3.3-1.1 4.2l-10.5 6c-1.4 0.9-3.3 0.4-4.2-1.1zM172.6 106.7c-1.5-0.8-2-2.7-1.1-4.2l6-10.5c0.8-1.5 2.7-2 4.2-1.1 1.5 0.8 2 2.7 1.1 4.2l-6 10.5c-0.9 1.4-2.8 1.9-4.2 1.1zM189.3 110.9c-1.7 0-3.1-1.4-3.1-3.1V95.7c0-1.7 1.4-3.1 3.1-3.1 1.7 0 3.1 1.4 3.1 3.1v12.1c0 1.7-1.4 3.1-3.1 3.1zM205.9 106.1c-1.5 0.8-3.3 0.3-4.2-1.1l-6-10.5c-0.8-1.5-0.3-3.3 1.1-4.2 1.5-0.8 3.3-0.3 4.2 1.1l6 10.5c0.9 1.5 0.4 3.3-1.1 4.2zM217.9 93.7c-0.8 1.5-2.7 2-4.2 1.1l-10.5-6c-1.5-0.8-2-2.7-1.1-4.2 0.8-1.5 2.7-2 4.2-1.1l10.5 6c1.5 0.8 2 2.7 1.1 4.2zM222.1 76.9c0 1.7-1.4 3.1-3.1 3.1h-12c-1.7 0-3.1-1.4-3.1-3.1 0-1.7 1.4-3.1 3.1-3.1h12c1.7 0 3.1 1.4 3.1 3.1zM217.3 60.3c0.8 1.5 0.3 3.3-1.1 4.2l-10.5 6c-1.5 0.8-3.3 0.3-4.2-1.1-0.8-1.5-0.3-3.3 1.1-4.2l10.5-6c1.5-0.9 3.4-0.4 4.2 1.1zM204.9 48.3c1.5 0.8 2 2.7 1.1 4.2L200 63c-0.8 1.5-2.7 2-4.2 1.1-1.5-0.8-2-2.7-1.1-4.2l6-10.5c0.9-1.4 2.7-2 4.2-1.1z" fill="#DD2C14" p-id="3675"></path></svg>